<svg xmlns="http://www.w3.org/2000/svg" width="512" height="512"><g xmlns="http://www.w3.org/2000/svg" fill="#19f9c8"><path d="M467 40.5H45c-24.813 0-45 20.187-45 45v276c0 24.813 20.187 45 45 45h127.86l-8.616 35H144c-8.284 0-15 6.716-15 15s6.716 15 15 15h224c8.284 0 15-6.716 15-15s-6.716-15-15-15h-20.244l-8.616-35H467c24.813 0 45-20.187 45-45v-276c0-24.813-20.187-45-45-45zm-422 30h422c8.271 0 15 6.729 15 15v227H299.699c3.328-8.608 4.062-18.081 1.923-27.349l-11.408-49.434C286.516 219.692 272.446 208.5 256 208.5c-16.447 0-30.517 11.192-34.214 27.217-11.755 50.939-11.408 49.331-11.408 49.435-2.139 9.269-1.406 18.742 1.922 27.348H30v-227c0-8.271 6.729-15 15-15zm197.83 235.642c-5.412-6.803-3.22-14.345-3.22-14.245l11.408-49.435c1.215-5.27 8.748-5.267 9.963.001l11.408 49.434c2.437 10.55-5.583 20.603-16.39 20.603a16.744 16.744 0 01-13.169-6.358zM316.86 441.5H195.14l8.616-35h104.488zm150.14-65H45c-8.271 0-15-6.729-15-15v-19h452v19c0 8.271-6.729 15-15 15z" data-original="#000000"/><path d="M112 278.5h32c8.284 0 15-6.716 15-15s-6.716-15-15-15h-16.133c2.832-24.353 12.478-46.653 26.969-64.95l11.361 11.361c5.857 5.858 15.354 5.858 21.213 0 5.858-5.858 5.858-15.355 0-21.213l-11.362-11.362c18.297-14.491 40.599-24.134 64.952-26.966v16.13c0 8.284 6.716 15 15 15s15-6.716 15-15v-16.13c24.353 2.832 46.654 12.475 64.952 26.966l-11.362 11.362c-5.858 5.858-5.858 15.355 0 21.213 5.857 5.857 15.355 5.858 21.213 0l11.361-11.361c14.491 18.297 24.138 40.598 26.969 64.95H368c-8.284 0-15 6.716-15 15s6.716 15 15 15h32c8.284 0 15-6.716 15-15 0-42.836-17.146-83.471-47.797-113.524-63.558-62.27-164.405-59.712-224.727 2.322C114.364 180.991 97 220.253 97 263.5c0 8.284 6.716 15 15 15z" data-original="#000000"/></g></svg>