<svg xmlns="http://www.w3.org/2000/svg" width="512" height="512"><g xmlns="http://www.w3.org/2000/svg" fill="#19f9c8"><path d="M241 283h30v114h-30z" data-original="#393d9d"/><path d="M256 283h15v114h-15z" data-original="#182084"/><path d="M211 283v63c0 8.28-6.72 15-15 15H76v36H46v-51c0-8.28 6.72-15 15-15h120v-48z" data-original="#393d9d"/><path d="M466 346v51h-30v-36H316c-8.28 0-15-6.72-15-15v-63h30v48h120c8.28 0 15 6.72 15 15z" data-original="#182084"/><path d="M105 392H15c-8.284 0-15 6.716-15 15v90c0 8.284 6.716 15 15 15h90c8.284 0 15-6.716 15-15v-90c0-8.284-6.716-15-15-15zm196 0h-90c-8.284 0-15 6.716-15 15v90c0 8.284 6.716 15 15 15h90c8.284 0 15-6.716 15-15v-90c0-8.284-6.716-15-15-15z" data-original="#fdbf00"/><path d="M316 407v90c0 8.28-6.72 15-15 15h-45V392h45c8.28 0 15 6.72 15 15zm181-15h-90c-8.284 0-15 6.716-15 15v90c0 8.284 6.716 15 15 15h90c8.284 0 15-6.716 15-15v-90c0-8.284-6.716-15-15-15z" data-original="#ff9100"/><path d="M447.292 216.266c0-44.686-40.577-78.833-85.051-70.481C385.413 73.746 331.571 0 256 0c-68.367 0-120.667 60.916-110.294 128.623-45.006-.703-80.998 35.564-80.998 79.672 0 44.02 35.685 79.705 79.705 79.705h231.675v-.013c39.372-.287 71.204-32.282 71.204-71.721z" data-original="#edf5ff"/><path d="M447.29 216.27c0 39.44-31.83 71.43-71.2 71.72v.01H256V0c75.57 0 129.41 73.75 106.24 145.79 44.47-8.36 85.05 25.79 85.05 70.48z" data-original="#d5e8fe"/></g></svg>