<svg xmlns="http://www.w3.org/2000/svg" width="512" height="512"><g xmlns="http://www.w3.org/2000/svg"><path d="M512 15c0-8.284-6.716-15-15-15H15C6.716 0 0 6.716 0 15v76l256 20 256-20z" fill="#19f9c8" data-original="#393d9d"/><path d="M512 15v76l-256 20V0h241c8.28 0 15 6.72 15 15z" fill="#19f9c8" data-original="#182084"/><path d="M0 91v406c0 8.284 6.716 15 15 15h482c8.284 0 15-6.716 15-15V91z" fill="#edf5ff" data-original="#edf5ff"/><path d="M512 91v406c0 8.28-6.72 15-15 15H256V91z" fill="#d5e8fe" data-original="#d5e8fe"/><path d="M286 286.502H136c-8.284 0-15 6.716-15 15s6.716 15 15 15h150c8.284 0 15-6.716 15-15s-6.716-15-15-15z" fill="#19f9c8" data-original="#00ed89"/><path d="M301 301.5c0 8.29-6.72 15-15 15h-30v-30h30c8.28 0 15 6.72 15 15z" fill="#00baa0" data-original="#00baa0"/><path d="M256 346.502H136c-8.284 0-15 6.716-15 15s6.716 15 15 15h120c8.284 0 15-6.716 15-15s-6.716-15-15-15z" fill="#19f9c8" data-original="#00ed89"/><path d="M271 361.5c0 8.29-6.72 15-15 15v-30c8.28 0 15 6.72 15 15z" fill="#00baa0" data-original="#00baa0"/><path d="M286 406.502H136c-8.284 0-15 6.716-15 15s6.716 15 15 15h150c8.284 0 15-6.716 15-15s-6.716-15-15-15z" fill="#19f9c8" data-original="#00ed89"/><path d="M301 421.5c0 8.29-6.72 15-15 15h-30v-30h30c8.28 0 15 6.72 15 15z" fill="#00baa0" data-original="#00baa0"/><path d="M185.406 252.133c5.857 5.858 15.355 5.859 21.213 0 5.858-5.858 5.858-15.355 0-21.213l-19.393-19.394 19.418-19.418c5.858-5.858 5.858-15.355 0-21.213-5.857-5.858-15.355-5.858-21.213 0l-30.025 30.025c-5.858 5.858-5.858 15.355 0 21.213z" fill="#19f9c8" data-original="#00ed89"/><path d="M326.544 170.895c-5.857-5.858-15.355-5.858-21.213 0s-5.858 15.355 0 21.213l19.443 19.443-19.356 19.356c-5.857 5.858-5.857 15.355 0 21.213 5.857 5.857 15.355 5.858 21.213 0l29.962-29.963c5.858-5.858 5.858-15.355 0-21.213z" fill="#00baa0" data-original="#00baa0"/><path d="M234.292 254.918c7.424 3.712 16.427.687 20.125-6.708l30-60c3.705-7.41.701-16.419-6.708-20.125-7.409-3.705-16.419-.701-20.125 6.708l-30 60c-3.705 7.41-.702 16.42 6.708 20.125z" fill="#19f9c8" data-original="#00ed89"/><path d="M284.42 188.21L256 245.05v-67.1l1.58-3.16c3.71-7.41 12.72-10.41 20.13-6.7 7.41 3.7 10.41 12.71 6.71 20.12zM346 316.502h30c8.284 0 15-6.716 15-15s-6.716-15-15-15h-30c-8.284 0-15 6.716-15 15s6.716 15 15 15zm30 30h-60c-8.284 0-15 6.716-15 15s6.716 15 15 15h60c8.284 0 15-6.716 15-15s-6.716-15-15-15zm0 60h-30c-8.284 0-15 6.716-15 15s6.716 15 15 15h30c8.284 0 15-6.716 15-15s-6.716-15-15-15z" data-original="#00baa0" fill="#00baa0"/><circle cx="466" cy="46" fill="#cd0000" r="15" data-original="#cd0000"/><circle cx="406" cy="46" fill="#ffda2d" r="15" data-original="#ffda2d"/><circle cx="346" cy="46" fill="#19f9c8" r="15" data-original="#00ed89"/></g></svg>